<svg width="40" height="40" viewBox="0 0 40 40" fill="none" xmlns="http://www.w3.org/2000/svg">
<rect x="0.25" y="0.25" width="39.5" height="39.5" rx="7.75" fill="#F2F0FF"/>
<g clip-path="url(#clip0_5443_71752)">
<path d="M20.6 10.3984C21.5938 10.3984 22.4 11.2043 22.4 12.1984V24.1909C20.9675 24.9934 20 26.5234 20 28.2822C20 28.7659 20.135 29.2159 20.3713 29.5984H17V26.5984C17 25.6047 16.1938 24.7984 15.2 24.7984C14.2063 24.7984 13.4 25.6047 13.4 26.5984V29.5984H9.8C8.80588 29.5984 8 28.7922 8 27.7984V12.1984C8 11.2043 8.80588 10.3984 9.8 10.3984H20.6ZM10.4 20.5984C10.4 20.9284 10.6685 21.1984 11 21.1984H12.2C12.53 21.1984 12.8 20.9284 12.8 20.5984V19.3984C12.8 19.0684 12.53 18.7984 12.2 18.7984H11C10.6685 18.7984 10.4 19.0684 10.4 19.3984V20.5984ZM14.6 18.7984C14.27 18.7984 14 19.0684 14 19.3984V20.5984C14 20.9284 14.27 21.1984 14.6 21.1984H15.8C16.13 21.1984 16.4 20.9284 16.4 20.5984V19.3984C16.4 19.0684 16.13 18.7984 15.8 18.7984H14.6ZM17.6 20.5984C17.6 20.9284 17.87 21.1984 18.2 21.1984H19.4C19.73 21.1984 20 20.9284 20 20.5984V19.3984C20 19.0684 19.73 18.7984 19.4 18.7984H18.2C17.87 18.7984 17.6 19.0684 17.6 19.3984V20.5984ZM11 13.9984C10.6685 13.9984 10.4 14.2684 10.4 14.5984V15.7984C10.4 16.1284 10.6685 16.3984 11 16.3984H12.2C12.53 16.3984 12.8 16.1284 12.8 15.7984V14.5984C12.8 14.2684 12.53 13.9984 12.2 13.9984H11ZM14 15.7984C14 16.1284 14.27 16.3984 14.6 16.3984H15.8C16.13 16.3984 16.4 16.1284 16.4 15.7984V14.5984C16.4 14.2684 16.13 13.9984 15.8 13.9984H14.6C14.27 13.9984 14 14.2684 14 14.5984V15.7984ZM18.2 13.9984C17.87 13.9984 17.6 14.2684 17.6 14.5984V15.7984C17.6 16.1284 17.87 16.3984 18.2 16.3984H19.4C19.73 16.3984 20 16.1284 20 15.7984V14.5984C20 14.2684 19.73 13.9984 19.4 13.9984H18.2ZM29.6 20.5984C29.6 22.2559 28.2575 23.5984 26.6 23.5984C24.9425 23.5984 23.6 22.2559 23.6 20.5984C23.6 18.9409 24.9425 17.5984 26.6 17.5984C28.2575 17.5984 29.6 18.9409 29.6 20.5984ZM21.2 28.2897C21.2 26.3622 22.7638 24.7984 24.6913 24.7984H28.5088C30.4363 24.7984 32 26.3622 32 28.2897C32 29.0134 31.415 29.5984 30.6912 29.5984H22.5087C21.785 29.5984 21.2 29.0134 21.2 28.2897Z" fill="#705BFA"/>
</g>
<rect x="0.25" y="0.25" width="39.5" height="39.5" rx="7.75" stroke="#EEEEEE" stroke-width="0.5"/>
<defs>
<clipPath id="clip0_5443_71752">
<rect width="24" height="19.2" fill="white" transform="translate(8 10.3984)"/>
</clipPath>
</defs>
</svg>
