<svg width="40" height="40" viewBox="0 0 40 40" fill="none" xmlns="http://www.w3.org/2000/svg">
<rect x="0.25" y="0.25" width="39.5" height="39.5" rx="7.75" fill="#F2F0FF"/>
<path d="M15.2 20.0016C17.5213 20.0016 19.4 18.1228 19.4 15.8016C19.4 13.4803 17.5213 11.6016 15.2 11.6016C12.8788 11.6016 11 13.4803 11 15.8016C11 18.1228 12.8788 20.0016 15.2 20.0016ZM18.08 21.2016H17.7688C16.9888 21.5766 16.1225 21.8016 15.2 21.8016C14.2775 21.8016 13.415 21.5766 12.6313 21.2016H12.32C9.935 21.2016 8 23.1366 8 25.5216V26.6016C8 27.5953 8.80625 28.4016 9.8 28.4016H20.6C21.5938 28.4016 22.4 27.5953 22.4 26.6016V25.5216C22.4 23.1366 20.465 21.2016 18.08 21.2016ZM26 20.0016C27.9875 20.0016 29.6 18.3891 29.6 16.4016C29.6 14.4141 27.9875 12.8016 26 12.8016C24.0125 12.8016 22.4 14.4141 22.4 16.4016C22.4 18.3891 24.0125 20.0016 26 20.0016ZM27.8 21.2016H27.6575C27.1363 21.3816 26.585 21.5016 26 21.5016C25.415 21.5016 24.8638 21.3816 24.3425 21.2016H24.2C23.435 21.2016 22.73 21.4228 22.1112 21.7791C23.0262 22.7653 23.6 24.0741 23.6 25.5216V26.9616C23.6 27.0441 23.5813 27.1228 23.5775 27.2016H30.2C31.1938 27.2016 32 26.3953 32 25.4016C32 23.0803 30.1213 21.2016 27.8 21.2016Z" fill="#705BFA"/>
<rect x="0.25" y="0.25" width="39.5" height="39.5" rx="7.75" stroke="#EEEEEE" stroke-width="0.5"/>
</svg>
