<svg width="267" height="267" viewBox="0 0 267 267" fill="none" xmlns="http://www.w3.org/2000/svg">
<path opacity="0.14" d="M266.828 133.077C266.828 150.54 263.389 167.833 256.706 183.967C250.023 200.101 240.228 214.76 227.879 227.109C215.531 239.457 200.871 249.252 184.737 255.935C168.603 262.618 151.311 266.058 133.848 266.058C116.384 266.058 99.092 262.618 82.958 255.935C66.824 249.252 52.1644 239.457 39.816 227.109C27.4676 214.76 17.6723 200.101 10.9894 183.967C4.30646 167.833 0.866806 150.54 0.866812 133.077L133.848 133.077L266.828 133.077Z" fill="white"/>
<path opacity="0.28" d="M0.866701 0.672297C0.866702 18.1356 4.30635 35.4279 10.9893 51.5618C17.6722 67.6958 27.4675 82.3555 39.8159 94.7039C52.1643 107.052 66.824 116.848 82.958 123.531C99.0919 130.213 116.384 133.653 133.848 133.653C151.311 133.653 168.603 130.213 184.737 123.53C200.871 116.848 215.531 107.052 227.879 94.7039C240.228 82.3555 250.023 67.6958 256.706 51.5618C263.389 35.4278 266.828 18.1355 266.828 0.672249L133.847 0.672292L0.866701 0.672297Z" fill="white"/>
</svg>
